<svg xmlns="http://www.w3.org/2000/svg" width="193.155" height="193.155" viewBox="0 0 193.155 193.155">
    <defs>
        <style>
            .cls-2{fill:#ffae00}.cls-4{fill:none}.cls-10,.cls-4{stroke:#4c3f3c;stroke-width:1.75px}.cls-8{fill:#4c3f3c}.cls-10{fill:#fed160}
        </style>
    </defs>
    <g id="main_search_icon_06" transform="translate(-.154)">
        <circle id="타원_8" data-name="타원 8" cx="96.577" cy="96.577" r="96.577" transform="translate(.154)" style="fill:#fff"/>
        <g id="icon" transform="translate(67.155 71)">
            <g id="그룹_124" data-name="그룹 124">
                <path id="사각형_1331" data-name="사각형 1331" class="cls-2" d="M0 0h54a5 5 0 0 1 5 5v5H0V0z"/>
                <path id="사각형_1330" data-name="사각형 1330" transform="translate(6 15)" style="fill:#ffefcc" d="M0 0h54v31H0z"/>
                <g id="그룹_837" data-name="그룹 837" transform="translate(1)">
                    <path id="선_40" data-name="선 40" class="cls-4" transform="translate(7.999 35.5)" d="M0 0h16.654"/>
                    <g id="패스_4957" data-name="패스 4957" style="fill:#fff">
                        <path d="M22.929 11.975H.904C1.32 5.779 6.1.875 11.917.875c5.817 0 10.597 4.904 11.012 11.1z" style="stroke:none" transform="translate(4.41 17.65)"/>
                        <path d="M11.917 1.75c-5.06 0-9.27 4.058-10.04 9.35h20.08c-.771-5.292-4.98-9.35-10.04-9.35m0-1.75c6.58 0 11.916 5.753 11.916 12.85H0C0 5.753 5.335 0 11.917 0z" style="fill:#504842;stroke:none" transform="translate(4.41 17.65)"/>
                    </g>
                    <g id="그룹_835" data-name="그룹 835" transform="translate(12.093 14.005)">
                        <path id="사각형_1655" data-name="사각형 1655" transform="rotate(45 -6.563 14.705)" style="fill:#504842" d="M0 0h2v7H0z"/>
                        <circle id="타원_209" data-name="타원 209" class="cls-2" cx="3" cy="3" r="3" transform="rotate(-90 9.687 8.625)"/>
                    </g>
                </g>
            </g>
            <path id="패스_3693" data-name="패스 3693" d="M1036.525 212.662h-59.473v-9.712h53.409a6.064 6.064 0 0 1 6.064 6.062v39.893h-53.409a6.064 6.064 0 0 1-6.064-6.064v-19.8" transform="translate(-976.552 -202.95)" style="stroke-miterlimit:10;stroke:#4c3f3c;stroke-width:1.75px;fill:none"/>
            <path id="패스_3694" data-name="패스 3694" class="cls-8" d="M1000.055 206.045a1.514 1.514 0 1 1-1.513-1.513 1.514 1.514 0 0 1 1.513 1.513z" transform="translate(-956.721 -201.34)"/>
            <path id="패스_3695" data-name="패스 3695" class="cls-8" d="M1002.783 206.045a1.513 1.513 0 1 1-1.513-1.513 1.514 1.514 0 0 1 1.513 1.513z" transform="translate(-953.942 -201.34)"/>
            <path id="패스_3696" data-name="패스 3696" class="cls-8" d="M1005.513 206.045a1.514 1.514 0 1 1-1.513-1.513 1.514 1.514 0 0 1 1.513 1.513z" transform="translate(-951.165 -201.34)"/>
            <g id="graph" transform="translate(4.5 18.023)">
                <g id="그룹_834" data-name="그룹 834" transform="translate(15.651 11.222)">
                    <path id="패스_3620" data-name="패스 3620" d="M-213.889 193.349h4.4v16.074h-4.4z" transform="translate(243.792 -193.235)" style="fill:#fed160"/>
                    <path id="패스_3621" data-name="패스 3621" class="cls-10" d="M-311.39 298.392h4.4v9.968h-4.4z" transform="translate(334.589 -291.7)"/>
                    <path id="패스_3622" data-name="패스 3622" class="cls-10" d="M-408.892 236.682h4.4v13.833h-4.4z" transform="translate(425.387 -233.855)"/>
                    <path id="패스_3632" data-name="패스 3632" class="cls-4" d="M-500.855 54.24V37.58h4.447v9.858" transform="translate(530.758 -37.58)"/>
                    <path id="패스_3633" data-name="패스 3633" class="cls-4" d="M-492.254 63.4v3.51" transform="translate(526.554 -50.2)"/>
                </g>
                <path id="선_41" data-name="선 41" class="cls-4" transform="translate(0 33.477)" d="M0 0h50"/>
            </g>
        </g>
    </g>
</svg>
