<svg xmlns="http://www.w3.org/2000/svg" width="193.155" height="193.155" viewBox="0 0 193.155 193.155">
    <defs>
        <style>
            .cls-3,.cls-4{fill:none;stroke:#4c3f3c;stroke-width:1.75px}.cls-4{fill:#ffae00}
        </style>
    </defs>
    <g id="main_search_icon_04" transform="translate(41.879 52.697)">
        <circle id="타원_7" data-name="타원 7" cx="96.577" cy="96.577" r="96.577" transform="translate(-41.879 -52.697)" style="fill:#fff"/>
        <g id="icon">
            <path id="사각형_1329" data-name="사각형 1329" transform="translate(25.121 23.246)" style="fill:#ffefcc" d="M0 0h38.269v48.057H0z"/>
            <path id="패스_3657" data-name="패스 3657" class="cls-3" d="M25.259 53.778H-.231v-54h46v22.509" transform="translate(25.353 17.524)"/>
            <g id="그룹_816" data-name="그룹 816" transform="translate(1.266 11.053)">
                <path id="패스_3662" data-name="패스 3662" class="cls-3" d="m44.553 40.16 10.108-10.108 7.369 7.369 11.648-12.649"/>
                <path id="패스_3653" data-name="패스 3653" class="cls-4" d="M211.745 176.648a2.147 2.147 0 0 1 .648 1.548 2.2 2.2 0 1 1-2.2-2.2 2.147 2.147 0 0 1 1.552.652z" transform="translate(-165.644 -138.036)"/>
                <path id="패스_3654" data-name="패스 3654" class="cls-4" d="M283.745 107.745A2.2 2.2 0 0 1 280 106.2a2.2 2.2 0 1 1 4.393 0 2.147 2.147 0 0 1-.648 1.545z" transform="translate(-227.76 -75.92)"/>
                <path id="패스_3655" data-name="패스 3655" class="cls-4" d="M331.745 152.648a2.147 2.147 0 0 1 .648 1.548 2.2 2.2 0 1 1-4.393 0 2.19 2.19 0 0 1 3.745-1.548z" transform="translate(-269.171 -117.331)"/>
                <path id="패스_3656" data-name="패스 3656" class="cls-4" d="M406.589 16a6.589 6.589 0 0 1 0 13.178 6.587 6.587 0 0 1-6.49-5.491 6.008 6.008 0 0 1-.1-1.1 6.594 6.594 0 0 1 6.59-6.587z" transform="translate(-331.287)"/>
            </g>
            <g id="그룹_817" data-name="그룹 817" transform="translate(34.462 13.559)">
                <path id="패스_3658" data-name="패스 3658" class="cls-4" d="M-251.358 123.335h-6.088v-8.929a.406.406 0 0 1 .406-.406h5.276a.406.406 0 0 1 .406.406z" transform="translate(280.949 -65.591)"/>
                <path id="패스_3659" data-name="패스 3659" class="cls-4" d="M-131.358 157.479h-6.088v-5.074a.406.406 0 0 1 .406-.406h5.277a.406.406 0 0 1 .406.406z" transform="translate(173.126 -99.736)"/>
                <path id="패스_3660" data-name="패스 3660" class="cls-4" d="M-191.358 89.191h-6.088V76.406a.406.406 0 0 1 .406-.406h5.277a.406.406 0 0 1 .406.406z" transform="translate(227.038 -31.447)"/>
            </g>
            <path id="선_65" data-name="선 65" class="cls-3" transform="translate(33.183 30.184)" d="M0 0h20.88"/>
            <path id="선_66" data-name="선 66" class="cls-3" transform="translate(33.183 37.184)" d="M0 0h10.662"/>
        </g>
    </g>
</svg>
